<svg width="25" height="21" viewBox="0 0 25 21" fill="none" xmlns="http://www.w3.org/2000/svg">
<path fill-rule="evenodd" clip-rule="evenodd" d="M0 0H2.5V2.91667H0V0ZM4.99986 2.91669H2.49986V5.83335H4.99986V2.91669ZM4.99993 5.83334H7.49993V8.75001H4.99993V5.83334ZM2.49986 8.75H4.99986V11.6667H2.49986V8.75ZM2.5 11.6667H0V17.5V20.4167V20.4167H2.5V20.4167H22.5V20.4167H25L25 20.4167V17.5L25 11.6667H22.5V17.5H2.5V11.6667ZM10 11.6667H7.5V14.5834H10V11.6667ZM15 11.6667H17.5V14.5834H15V11.6667ZM20 8.75H22.5V11.6667H20V8.75ZM17.4999 5.83334H19.9999V8.75001H17.4999V5.83334ZM17.5 2.91669L17.4999 5.83334L7.5 5.83335V2.91669H17.5ZM22.5 2.91669H20V5.83335H22.5V2.91669ZM22.4999 0H24.9999V2.91667H22.4999V0Z" fill="#fff"/>
</svg>
