<svg width="24" height="24" viewBox="0 0 24 24" fill="none" xmlns="http://www.w3.org/2000/svg">
<path fill-rule="evenodd" clip-rule="evenodd" d="M0 0H3.33333V3.33333H0V0ZM3.33334 3.33341H6.66667V6.66675H3.33334V3.33341ZM10 10.0001H6.66667V6.66675H10V10.0001ZM13.3333 10.0001H10V13.3334L6.66667 13.3334V16.6667H3.33334L3.33334 20.0001H5.08626e-06V23.3334H3.33334V20.0001H6.66667V16.6667H10V13.3334H13.3333L13.3333 16.6667H16.6667V20.0001H20V23.3334H23.3333V20.0001H20V16.6667H16.6667V13.3334L13.3333 13.3334V10.0001ZM16.6667 6.66675V10.0001H13.3333L13.3333 6.66675H16.6667ZM20 3.33341V6.66675H16.6667V3.33341H20ZM20 3.33341L20 8.13802e-05H23.3333V3.33341L20 3.33341Z" fill="#ff0000"/>
</svg>
