<svg width="1245" height="35" viewBox="0 0 1245 35" fill="none" xmlns="http://www.w3.org/2000/svg">
<path fill-rule="evenodd" clip-rule="evenodd" d="M2.91675 7.29163H5.83341V10.2083H2.91675V7.29163ZM8.74992 10.2083H5.83325V13.125H8.74992V10.2083ZM8.75 13.125H11.6667V16.0416H8.75V13.125ZM5.83325 16.0416H8.74992V18.9583H5.83325V16.0416ZM5.83341 18.9583H2.91675V24.7916V27.7083V27.7083H5.83341V27.7083H29.1667V27.7083H32.0834L32.0834 27.7083V24.7916L32.0834 18.9583H29.1667V24.7916H5.83341V18.9583ZM14.5834 18.9583H11.6667V21.875H14.5834V18.9583ZM20.4167 18.9583H23.3334V21.875H20.4167V18.9583ZM26.2501 16.0416H29.1667V18.9583H26.2501V16.0416ZM23.3333 13.125H26.25V16.0416H23.3333V13.125ZM23.3334 10.2083L23.3333 13.125L11.6667 13.125V10.2083H23.3334ZM29.1667 10.2083H26.2501V13.125H29.1667V10.2083ZM29.1666 7.29163H32.0833V10.2083H29.1666V7.29163Z" fill="white"/>
<path fill-rule="evenodd" clip-rule="evenodd" d="M112.917 7.29163H115.833V10.2083H112.917V7.29163ZM118.75 10.2083H115.833V13.125H118.75V10.2083ZM118.75 13.125H121.667V16.0416H118.75V13.125ZM115.833 16.0416H118.75V18.9583H115.833V16.0416ZM115.833 18.9583H112.917V24.7916V27.7083V27.7083H115.833V27.7083H139.167V27.7083H142.083L142.083 27.7083V24.7916L142.083 18.9583H139.167V24.7916H115.833V18.9583ZM124.583 18.9583H121.667V21.875H124.583V18.9583ZM130.417 18.9583H133.333V21.875H130.417V18.9583ZM136.25 16.0416H139.167V18.9583H136.25V16.0416ZM133.333 13.125H136.25V16.0416H133.333V13.125ZM133.333 10.2083L133.333 13.125L121.667 13.125V10.2083H133.333ZM139.167 10.2083H136.25V13.125H139.167V10.2083ZM139.167 7.29163H142.083V10.2083H139.167V7.29163Z" fill="white"/>
<path fill-rule="evenodd" clip-rule="evenodd" d="M222.917 7.29163H225.833V10.2083H222.917V7.29163ZM228.75 10.2083H225.833V13.125H228.75V10.2083ZM228.75 13.125H231.667V16.0416H228.75V13.125ZM225.833 16.0416H228.75V18.9583H225.833V16.0416ZM225.833 18.9583H222.917V24.7916V27.7083V27.7083H225.833V27.7083H249.167V27.7083H252.083L252.083 27.7083V24.7916L252.083 18.9583H249.167V24.7916H225.833V18.9583ZM234.583 18.9583H231.667V21.875H234.583V18.9583ZM240.417 18.9583H243.333V21.875H240.417V18.9583ZM246.25 16.0416H249.167V18.9583H246.25V16.0416ZM243.333 13.125H246.25V16.0416H243.333V13.125ZM243.333 10.2083L243.333 13.125L231.667 13.125V10.2083H243.333ZM249.167 10.2083H246.25V13.125H249.167V10.2083ZM249.167 7.29163H252.083V10.2083H249.167V7.29163Z" fill="white"/>
<path fill-rule="evenodd" clip-rule="evenodd" d="M332.917 7.29163H335.833V10.2083H332.917V7.29163ZM338.75 10.2083H335.833V13.125H338.75V10.2083ZM338.75 13.125H341.667V16.0416H338.75V13.125ZM335.833 16.0416H338.75V18.9583H335.833V16.0416ZM335.833 18.9583H332.917V24.7916V27.7083V27.7083H335.833V27.7083H359.167V27.7083H362.083L362.083 27.7083V24.7916L362.083 18.9583H359.167V24.7916H335.833V18.9583ZM344.583 18.9583H341.667V21.875H344.583V18.9583ZM350.417 18.9583H353.333V21.875H350.417V18.9583ZM356.25 16.0416H359.167V18.9583H356.25V16.0416ZM353.333 13.125H356.25V16.0416H353.333V13.125ZM353.333 10.2083L353.333 13.125L341.667 13.125V10.2083H353.333ZM359.167 10.2083H356.25V13.125H359.167V10.2083ZM359.167 7.29163H362.083V10.2083H359.167V7.29163Z" fill="white"/>
<path fill-rule="evenodd" clip-rule="evenodd" d="M442.917 7.29163H445.833V10.2083H442.917V7.29163ZM448.75 10.2083H445.833V13.125H448.75V10.2083ZM448.75 13.125H451.667V16.0416H448.75V13.125ZM445.833 16.0416H448.75V18.9583H445.833V16.0416ZM445.833 18.9583H442.917V24.7916V27.7083V27.7083H445.833V27.7083H469.167V27.7083H472.083L472.083 27.7083V24.7916L472.083 18.9583H469.167V24.7916H445.833V18.9583ZM454.583 18.9583H451.667V21.875H454.583V18.9583ZM460.417 18.9583H463.333V21.875H460.417V18.9583ZM466.25 16.0416H469.167V18.9583H466.25V16.0416ZM463.333 13.125H466.25V16.0416H463.333V13.125ZM463.333 10.2083L463.333 13.125L451.667 13.125V10.2083H463.333ZM469.167 10.2083H466.25V13.125H469.167V10.2083ZM469.167 7.29163H472.083V10.2083H469.167V7.29163Z" fill="white"/>
<path fill-rule="evenodd" clip-rule="evenodd" d="M552.917 7.29163H555.833V10.2083H552.917V7.29163ZM558.75 10.2083H555.833V13.125H558.75V10.2083ZM558.75 13.125H561.667V16.0416H558.75V13.125ZM555.833 16.0416H558.75V18.9583H555.833V16.0416ZM555.833 18.9583H552.917V24.7916V27.7083V27.7083H555.833V27.7083H579.167V27.7083H582.083L582.083 27.7083V24.7916L582.083 18.9583H579.167V24.7916H555.833V18.9583ZM564.583 18.9583H561.667V21.875H564.583V18.9583ZM570.417 18.9583H573.333V21.875H570.417V18.9583ZM576.25 16.0416H579.167V18.9583H576.25V16.0416ZM573.333 13.125H576.25V16.0416H573.333V13.125ZM573.333 10.2083L573.333 13.125L561.667 13.125V10.2083H573.333ZM579.167 10.2083H576.25V13.125H579.167V10.2083ZM579.167 7.29163H582.083V10.2083H579.167V7.29163Z" fill="white"/>
<path fill-rule="evenodd" clip-rule="evenodd" d="M662.917 7.29163H665.833V10.2083H662.917V7.29163ZM668.75 10.2083H665.833V13.125H668.75V10.2083ZM668.75 13.125H671.667V16.0416H668.75V13.125ZM665.833 16.0416H668.75V18.9583H665.833V16.0416ZM665.833 18.9583H662.917V24.7916V27.7083V27.7083H665.833V27.7083H689.167V27.7083H692.083L692.083 27.7083V24.7916L692.083 18.9583H689.167V24.7916H665.833V18.9583ZM674.583 18.9583H671.667V21.875H674.583V18.9583ZM680.417 18.9583H683.333V21.875H680.417V18.9583ZM686.25 16.0416H689.167V18.9583H686.25V16.0416ZM683.333 13.125H686.25V16.0416H683.333V13.125ZM683.333 10.2083L683.333 13.125L671.667 13.125V10.2083H683.333ZM689.167 10.2083H686.25V13.125H689.167V10.2083ZM689.167 7.29163H692.083V10.2083H689.167V7.29163Z" fill="white"/>
<path fill-rule="evenodd" clip-rule="evenodd" d="M772.917 7.29163H775.833V10.2083H772.917V7.29163ZM778.75 10.2083H775.833V13.125H778.75V10.2083ZM778.75 13.125H781.667V16.0416H778.75V13.125ZM775.833 16.0416H778.75V18.9583H775.833V16.0416ZM775.833 18.9583H772.917V24.7916V27.7083V27.7083H775.833V27.7083H799.167V27.7083H802.083L802.083 27.7083V24.7916L802.083 18.9583H799.167V24.7916H775.833V18.9583ZM784.583 18.9583H781.667V21.875H784.583V18.9583ZM790.417 18.9583H793.333V21.875H790.417V18.9583ZM796.25 16.0416H799.167V18.9583H796.25V16.0416ZM793.333 13.125H796.25V16.0416H793.333V13.125ZM793.333 10.2083L793.333 13.125L781.667 13.125V10.2083H793.333ZM799.167 10.2083H796.25V13.125H799.167V10.2083ZM799.167 7.29163H802.083V10.2083H799.167V7.29163Z" fill="white"/>
<path fill-rule="evenodd" clip-rule="evenodd" d="M882.917 7.29163H885.833V10.2083H882.917V7.29163ZM888.75 10.2083H885.833V13.125H888.75V10.2083ZM888.75 13.125H891.667V16.0416H888.75V13.125ZM885.833 16.0416H888.75V18.9583H885.833V16.0416ZM885.833 18.9583H882.917V24.7916V27.7083V27.7083H885.833V27.7083H909.167V27.7083H912.083L912.083 27.7083V24.7916L912.083 18.9583H909.167V24.7916H885.833V18.9583ZM894.583 18.9583H891.667V21.875H894.583V18.9583ZM900.417 18.9583H903.333V21.875H900.417V18.9583ZM906.25 16.0416H909.167V18.9583H906.25V16.0416ZM903.333 13.125H906.25V16.0416H903.333V13.125ZM903.333 10.2083L903.333 13.125L891.667 13.125V10.2083H903.333ZM909.167 10.2083H906.25V13.125H909.167V10.2083ZM909.167 7.29163H912.083V10.2083H909.167V7.29163Z" fill="white"/>
<path fill-rule="evenodd" clip-rule="evenodd" d="M992.917 7.29163H995.833V10.2083H992.917V7.29163ZM998.75 10.2083H995.833V13.125H998.75V10.2083ZM998.75 13.125H1001.67V16.0416H998.75V13.125ZM995.833 16.0416H998.75V18.9583H995.833V16.0416ZM995.833 18.9583H992.917V24.7916V27.7083V27.7083H995.833V27.7083H1019.17V27.7083H1022.08L1022.08 27.7083V24.7916L1022.08 18.9583H1019.17V24.7916H995.833V18.9583ZM1004.58 18.9583H1001.67V21.875H1004.58V18.9583ZM1010.42 18.9583H1013.33V21.875H1010.42V18.9583ZM1016.25 16.0416H1019.17V18.9583H1016.25V16.0416ZM1013.33 13.125H1016.25V16.0416H1013.33V13.125ZM1013.33 10.2083L1013.33 13.125L1001.67 13.125V10.2083H1013.33ZM1019.17 10.2083H1016.25V13.125H1019.17V10.2083ZM1019.17 7.29163H1022.08V10.2083H1019.17V7.29163Z" fill="white"/>
<path fill-rule="evenodd" clip-rule="evenodd" d="M1102.92 7.29163H1105.83V10.2083H1102.92V7.29163ZM1108.75 10.2083H1105.83V13.125H1108.75V10.2083ZM1108.75 13.125H1111.67V16.0416H1108.75V13.125ZM1105.83 16.0416H1108.75V18.9583H1105.83V16.0416ZM1105.83 18.9583H1102.92V24.7916V27.7083V27.7083H1105.83V27.7083H1129.17V27.7083H1132.08L1132.08 27.7083V24.7916L1132.08 18.9583H1129.17V24.7916H1105.83V18.9583ZM1114.58 18.9583H1111.67V21.875H1114.58V18.9583ZM1120.42 18.9583H1123.33V21.875H1120.42V18.9583ZM1126.25 16.0416H1129.17V18.9583H1126.25V16.0416ZM1123.33 13.125H1126.25V16.0416H1123.33V13.125ZM1123.33 10.2083L1123.33 13.125L1111.67 13.125V10.2083H1123.33ZM1129.17 10.2083H1126.25V13.125H1129.17V10.2083ZM1129.17 7.29163H1132.08V10.2083H1129.17V7.29163Z" fill="white"/>
<path fill-rule="evenodd" clip-rule="evenodd" d="M1212.92 7.29163H1215.83V10.2083H1212.92V7.29163ZM1218.75 10.2083H1215.83V13.125H1218.75V10.2083ZM1218.75 13.125H1221.67V16.0416H1218.75V13.125ZM1215.83 16.0416H1218.75V18.9583H1215.83V16.0416ZM1215.83 18.9583H1212.92V24.7916V27.7083V27.7083H1215.83V27.7083H1239.17V27.7083H1242.08L1242.08 27.7083V24.7916L1242.08 18.9583H1239.17V24.7916H1215.83V18.9583ZM1224.58 18.9583H1221.67V21.875H1224.58V18.9583ZM1230.42 18.9583H1233.33V21.875H1230.42V18.9583ZM1236.25 16.0416H1239.17V18.9583H1236.25V16.0416ZM1233.33 13.125H1236.25V16.0416H1233.33V13.125ZM1233.33 10.2083L1233.33 13.125L1221.67 13.125V10.2083H1233.33ZM1239.17 10.2083H1236.25V13.125H1239.17V10.2083ZM1239.17 7.29163H1242.08V10.2083H1239.17V7.29163Z" fill="white"/>
</svg>
