<svg width="30" height="30" viewBox="0 0 30 30" fill="none" xmlns="http://www.w3.org/2000/svg">
<path fill-rule="evenodd" clip-rule="evenodd" d="M12 0H9V3.33333H12V0ZM9 3.33334H6V6.66667H9V3.33334ZM12 3.33334H15V6.66667H12V3.33334ZM21 13.3333V10H24V3.33334H18V6.66667L15 6.66667V10H12V13.3333H9V16.6667H6V20L3 20V16.6667H0V20H3V23.3333H6V20L9 20L12 20V23.3333L15 23.3333V26.6667H12V30H15V26.6667L18 26.6667V23.3333H15V20V16.6667H18V13.3333H21ZM24 16.6667L21 16.6667V13.3333H24V16.6667ZM27 16.6667V20H24V16.6667L27 16.6667ZM27 16.6667V13.3333H30V16.6667H27Z" fill="black"/>
</svg>
